# xmcd CD database file
#
# Track frame offsets:
#	150
#	21622
#	45479
#	64949
#	88620
#	108072
#	134986
#	156841
#	177447
#	201204
#	228525
#	254666
#
# Disc length: 3682 seconds
#
# Revision: 3
# Processed by: cddbd v1.4PL0 Copyright (c) Steve Scherf et al.
# Submitted via: CDex 1.40Release
#
DISCID=b10e600c
DTITLE=Creed - Human Clay
DYEAR=1900
DGENRE=
TTITLE0=Are You Ready?
TTITLE1=What If
TTITLE2=Beautiful
TTITLE3=Say I
TTITLE4=Wrong Way
TTITLE5=Faceless Man
TTITLE6=Never Die
TTITLE7=With Arms Wide Open
TTITLE8=Higher
TTITLE9=Wash Away Those Years
TTITLE10=Inside Us All
TTITLE11=Young Grow Old
EXTD=
EXTT0=
EXTT1=
EXTT2=
EXTT3=
EXTT4=
EXTT5=
EXTT6=
EXTT7=
EXTT8=
EXTT9=
EXTT10=
EXTT11=
PLAYORDER=
